<svg xmlns="http://www.w3.org/2000/svg" xmlns:xlink="http://www.w3.org/1999/xlink" width="500" zoomAndPan="magnify" viewBox="0 0 375 374.999991" height="500" preserveAspectRatio="xMidYMid meet" version="1.0"><defs><g/><clipPath id="036ce954d6"><path d="M 121.6875 115.867188 L 253.6875 115.867188 L 253.6875 259.117188 L 121.6875 259.117188 Z M 121.6875 115.867188 " clip-rule="nonzero"/></clipPath><clipPath id="ca20c87e0d"><path d="M 186 169 L 253.6875 169 L 253.6875 206 L 186 206 Z M 186 169 " clip-rule="nonzero"/></clipPath><clipPath id="8351e224e2"><path d="M 230 169 L 253.6875 169 L 253.6875 242 L 230 242 Z M 230 169 " clip-rule="nonzero"/></clipPath></defs><rect x="-37.5" width="450" fill="#ffffff" y="-37.499999" height="449.999989" fill-opacity="1"/><rect x="-37.5" width="450" fill="#ffffff" y="-37.499999" height="449.999989" fill-opacity="1"/><g clip-path="url(#036ce954d6)"><path fill="#004aad" d="M 154.144531 187.496094 C 154.144531 161.164062 172.542969 143.183594 199.472656 143.183594 C 209.640625 143.183594 218.589844 145.777344 226.582031 151.265625 L 253.300781 137.011719 C 239.878906 123.171875 220.707031 115.867188 197.890625 115.867188 C 153.757812 115.867188 121.699219 145.746094 121.699219 187.496094 C 121.699219 229.246094 153.757812 259.128906 197.890625 259.128906 C 214.621094 259.128906 229.382812 255.191406 241.34375 247.675781 L 226.550781 223.730469 C 218.558594 229.21875 209.640625 231.8125 199.441406 231.8125 C 172.542969 231.8125 154.144531 213.828125 154.144531 187.496094 Z M 154.144531 187.496094 " fill-opacity="1" fill-rule="evenodd"/></g><g clip-path="url(#ca20c87e0d)"><path fill="#aaccff" d="M 230.992188 205.421875 L 253.300781 169.695312 L 186.023438 205.597656 L 224.015625 205.449219 Z M 230.992188 205.421875 " fill-opacity="1" fill-rule="evenodd"/></g><g clip-path="url(#8351e224e2)"><path fill="#004aad" d="M 253.300781 169.695312 L 230.992188 205.421875 L 253.300781 241.535156 Z M 253.300781 169.695312 " fill-opacity="1" fill-rule="evenodd"/></g><g fill="#004aad" fill-opacity="1"><g transform="translate(49.123029, 327.043016)"><g><path d="M 13.421875 0.484375 C 11.671875 0.484375 10.046875 0.179688 8.546875 -0.421875 C 7.054688 -1.023438 5.765625 -1.867188 4.671875 -2.953125 C 3.585938 -4.046875 2.738281 -5.335938 2.125 -6.828125 C 1.519531 -8.328125 1.21875 -9.953125 1.21875 -11.703125 C 1.21875 -13.453125 1.523438 -15.070312 2.140625 -16.5625 C 2.765625 -18.0625 3.617188 -19.359375 4.703125 -20.453125 C 5.796875 -21.554688 7.082031 -22.414062 8.5625 -23.03125 C 10.050781 -23.65625 11.65625 -23.96875 13.375 -23.96875 C 15.195312 -23.96875 16.890625 -23.613281 18.453125 -22.90625 C 20.023438 -22.207031 21.382812 -21.203125 22.53125 -19.890625 L 18.953125 -16.4375 C 18.273438 -17.226562 17.472656 -17.847656 16.546875 -18.296875 C 15.628906 -18.753906 14.617188 -18.984375 13.515625 -18.984375 C 12.515625 -18.984375 11.59375 -18.800781 10.75 -18.4375 C 9.914062 -18.082031 9.1875 -17.582031 8.5625 -16.9375 C 7.945312 -16.289062 7.46875 -15.523438 7.125 -14.640625 C 6.789062 -13.753906 6.625 -12.796875 6.625 -11.765625 C 6.625 -10.710938 6.796875 -9.742188 7.140625 -8.859375 C 7.492188 -7.972656 7.976562 -7.203125 8.59375 -6.546875 C 9.21875 -5.890625 9.960938 -5.378906 10.828125 -5.015625 C 11.691406 -4.660156 12.632812 -4.484375 13.65625 -4.484375 C 14.78125 -4.484375 15.804688 -4.71875 16.734375 -5.1875 C 17.671875 -5.65625 18.46875 -6.285156 19.125 -7.078125 L 22.703125 -3.671875 C 21.578125 -2.347656 20.226562 -1.320312 18.65625 -0.59375 C 17.082031 0.125 15.335938 0.484375 13.421875 0.484375 Z M 13.421875 0.484375 "/></g></g></g><g fill="#004aad" fill-opacity="1"><g transform="translate(75.957139, 327.043016)"><g><path d="M 9.59375 -23.890625 L 12.859375 -23.890625 L 22.109375 0 L 16.703125 0 L 15.28125 -3.953125 L 7.1875 -3.953125 L 5.78125 0 L 0.34375 0 Z M 13.703125 -8.375 L 11.25 -15.28125 L 8.765625 -8.375 Z M 13.703125 -8.375 "/></g></g></g><g fill="#004aad" fill-opacity="1"><g transform="translate(101.845439, 327.043016)"><g><path d="M 2.625 -23.46875 L 9.984375 -23.46875 C 11.203125 -23.46875 12.328125 -23.28125 13.359375 -22.90625 C 14.398438 -22.53125 15.296875 -22.003906 16.046875 -21.328125 C 16.796875 -20.648438 17.378906 -19.84375 17.796875 -18.90625 C 18.210938 -17.976562 18.421875 -16.96875 18.421875 -15.875 C 18.421875 -14.46875 18.082031 -13.195312 17.40625 -12.0625 C 16.726562 -10.9375 15.796875 -10.054688 14.609375 -9.421875 L 20.109375 0 L 14.15625 0 L 9.59375 -8.234375 L 7.734375 -8.234375 L 7.734375 0 L 2.625 0 Z M 9.734375 -12.75 C 10.835938 -12.75 11.707031 -13.019531 12.34375 -13.5625 C 12.988281 -14.113281 13.3125 -14.867188 13.3125 -15.828125 C 13.3125 -16.785156 12.984375 -17.5 12.328125 -17.96875 C 11.671875 -18.4375 10.804688 -18.671875 9.734375 -18.671875 L 7.734375 -18.671875 L 7.734375 -12.75 Z M 9.734375 -12.75 "/></g></g></g><g fill="#004aad" fill-opacity="1"><g transform="translate(125.912158, 327.043016)"><g><path d="M 2.625 -23.46875 L 16.046875 -23.46875 L 16.046875 -18.671875 L 7.734375 -18.671875 L 7.734375 -14.359375 L 13.796875 -14.359375 L 13.796875 -9.5625 L 7.734375 -9.5625 L 7.734375 -4.796875 L 16.21875 -4.796875 L 16.21875 0 L 2.625 0 Z M 2.625 -23.46875 "/></g></g></g><g fill="#004aad" fill-opacity="1"><g transform="translate(147.31657, 327.043016)"><g><path d="M 2.625 -23.46875 L 16.046875 -23.46875 L 16.046875 -18.671875 L 7.734375 -18.671875 L 7.734375 -14.359375 L 13.796875 -14.359375 L 13.796875 -9.5625 L 7.734375 -9.5625 L 7.734375 -4.796875 L 16.21875 -4.796875 L 16.21875 0 L 2.625 0 Z M 2.625 -23.46875 "/></g></g></g><g fill="#004aad" fill-opacity="1"><g transform="translate(168.720983, 327.043016)"><g><path d="M 2.625 -23.46875 L 9.984375 -23.46875 C 11.203125 -23.46875 12.328125 -23.28125 13.359375 -22.90625 C 14.398438 -22.53125 15.296875 -22.003906 16.046875 -21.328125 C 16.796875 -20.648438 17.378906 -19.84375 17.796875 -18.90625 C 18.210938 -17.976562 18.421875 -16.96875 18.421875 -15.875 C 18.421875 -14.46875 18.082031 -13.195312 17.40625 -12.0625 C 16.726562 -10.9375 15.796875 -10.054688 14.609375 -9.421875 L 20.109375 0 L 14.15625 0 L 9.59375 -8.234375 L 7.734375 -8.234375 L 7.734375 0 L 2.625 0 Z M 9.734375 -12.75 C 10.835938 -12.75 11.707031 -13.019531 12.34375 -13.5625 C 12.988281 -14.113281 13.3125 -14.867188 13.3125 -15.828125 C 13.3125 -16.785156 12.984375 -17.5 12.328125 -17.96875 C 11.671875 -18.4375 10.804688 -18.671875 9.734375 -18.671875 L 7.734375 -18.671875 L 7.734375 -12.75 Z M 9.734375 -12.75 "/></g></g></g><g fill="#004aad" fill-opacity="1"><g transform="translate(192.787701, 327.043016)"><g/></g></g><g fill="#aaccff" fill-opacity="1"><g transform="translate(203.937011, 327.043016)"><g><path d="M 13.421875 0.484375 C 11.671875 0.484375 10.046875 0.179688 8.546875 -0.421875 C 7.054688 -1.023438 5.765625 -1.867188 4.671875 -2.953125 C 3.585938 -4.046875 2.738281 -5.335938 2.125 -6.828125 C 1.519531 -8.328125 1.21875 -9.953125 1.21875 -11.703125 C 1.21875 -13.453125 1.523438 -15.070312 2.140625 -16.5625 C 2.765625 -18.0625 3.617188 -19.359375 4.703125 -20.453125 C 5.796875 -21.554688 7.082031 -22.414062 8.5625 -23.03125 C 10.050781 -23.65625 11.65625 -23.96875 13.375 -23.96875 C 15.195312 -23.96875 16.890625 -23.613281 18.453125 -22.90625 C 20.023438 -22.207031 21.382812 -21.203125 22.53125 -19.890625 L 18.953125 -16.4375 C 18.273438 -17.226562 17.472656 -17.847656 16.546875 -18.296875 C 15.628906 -18.753906 14.617188 -18.984375 13.515625 -18.984375 C 12.515625 -18.984375 11.59375 -18.800781 10.75 -18.4375 C 9.914062 -18.082031 9.1875 -17.582031 8.5625 -16.9375 C 7.945312 -16.289062 7.46875 -15.523438 7.125 -14.640625 C 6.789062 -13.753906 6.625 -12.796875 6.625 -11.765625 C 6.625 -10.710938 6.796875 -9.742188 7.140625 -8.859375 C 7.492188 -7.972656 7.976562 -7.203125 8.59375 -6.546875 C 9.21875 -5.890625 9.960938 -5.378906 10.828125 -5.015625 C 11.691406 -4.660156 12.632812 -4.484375 13.65625 -4.484375 C 14.78125 -4.484375 15.804688 -4.71875 16.734375 -5.1875 C 17.671875 -5.65625 18.46875 -6.285156 19.125 -7.078125 L 22.703125 -3.671875 C 21.578125 -2.347656 20.226562 -1.320312 18.65625 -0.59375 C 17.082031 0.125 15.335938 0.484375 13.421875 0.484375 Z M 13.421875 0.484375 "/></g></g></g><g fill="#aaccff" fill-opacity="1"><g transform="translate(230.77112, 327.043016)"><g><path d="M 2.625 -23.46875 L 7.734375 -23.46875 L 7.734375 0 L 2.625 0 Z M 2.625 -23.46875 "/></g></g></g><g fill="#aaccff" fill-opacity="1"><g transform="translate(244.573939, 327.043016)"><g><path d="M 2.625 -23.46875 L 9.984375 -23.46875 C 11.203125 -23.46875 12.328125 -23.28125 13.359375 -22.90625 C 14.398438 -22.53125 15.296875 -22.003906 16.046875 -21.328125 C 16.796875 -20.648438 17.378906 -19.84375 17.796875 -18.90625 C 18.210938 -17.976562 18.421875 -16.96875 18.421875 -15.875 C 18.421875 -14.46875 18.082031 -13.195312 17.40625 -12.0625 C 16.726562 -10.9375 15.796875 -10.054688 14.609375 -9.421875 L 20.109375 0 L 14.15625 0 L 9.59375 -8.234375 L 7.734375 -8.234375 L 7.734375 0 L 2.625 0 Z M 9.734375 -12.75 C 10.835938 -12.75 11.707031 -13.019531 12.34375 -13.5625 C 12.988281 -14.113281 13.3125 -14.867188 13.3125 -15.828125 C 13.3125 -16.785156 12.984375 -17.5 12.328125 -17.96875 C 11.671875 -18.4375 10.804688 -18.671875 9.734375 -18.671875 L 7.734375 -18.671875 L 7.734375 -12.75 Z M 9.734375 -12.75 "/></g></g></g><g fill="#aaccff" fill-opacity="1"><g transform="translate(268.640657, 327.043016)"><g><path d="M 13.421875 0.484375 C 11.671875 0.484375 10.046875 0.179688 8.546875 -0.421875 C 7.054688 -1.023438 5.765625 -1.867188 4.671875 -2.953125 C 3.585938 -4.046875 2.738281 -5.335938 2.125 -6.828125 C 1.519531 -8.328125 1.21875 -9.953125 1.21875 -11.703125 C 1.21875 -13.453125 1.523438 -15.070312 2.140625 -16.5625 C 2.765625 -18.0625 3.617188 -19.359375 4.703125 -20.453125 C 5.796875 -21.554688 7.082031 -22.414062 8.5625 -23.03125 C 10.050781 -23.65625 11.65625 -23.96875 13.375 -23.96875 C 15.195312 -23.96875 16.890625 -23.613281 18.453125 -22.90625 C 20.023438 -22.207031 21.382812 -21.203125 22.53125 -19.890625 L 18.953125 -16.4375 C 18.273438 -17.226562 17.472656 -17.847656 16.546875 -18.296875 C 15.628906 -18.753906 14.617188 -18.984375 13.515625 -18.984375 C 12.515625 -18.984375 11.59375 -18.800781 10.75 -18.4375 C 9.914062 -18.082031 9.1875 -17.582031 8.5625 -16.9375 C 7.945312 -16.289062 7.46875 -15.523438 7.125 -14.640625 C 6.789062 -13.753906 6.625 -12.796875 6.625 -11.765625 C 6.625 -10.710938 6.796875 -9.742188 7.140625 -8.859375 C 7.492188 -7.972656 7.976562 -7.203125 8.59375 -6.546875 C 9.21875 -5.890625 9.960938 -5.378906 10.828125 -5.015625 C 11.691406 -4.660156 12.632812 -4.484375 13.65625 -4.484375 C 14.78125 -4.484375 15.804688 -4.71875 16.734375 -5.1875 C 17.671875 -5.65625 18.46875 -6.285156 19.125 -7.078125 L 22.703125 -3.671875 C 21.578125 -2.347656 20.226562 -1.320312 18.65625 -0.59375 C 17.082031 0.125 15.335938 0.484375 13.421875 0.484375 Z M 13.421875 0.484375 "/></g></g></g><g fill="#aaccff" fill-opacity="1"><g transform="translate(295.474766, 327.043016)"><g><path d="M 2.625 -23.46875 L 7.734375 -23.46875 L 7.734375 -4.796875 L 15.875 -4.796875 L 15.875 0 L 2.625 0 Z M 2.625 -23.46875 "/></g></g></g><g fill="#aaccff" fill-opacity="1"><g transform="translate(315.828261, 327.043016)"><g><path d="M 2.625 -23.46875 L 16.046875 -23.46875 L 16.046875 -18.671875 L 7.734375 -18.671875 L 7.734375 -14.359375 L 13.796875 -14.359375 L 13.796875 -9.5625 L 7.734375 -9.5625 L 7.734375 -4.796875 L 16.21875 -4.796875 L 16.21875 0 L 2.625 0 Z M 2.625 -23.46875 "/></g></g></g></svg>