<svg xmlns="http://www.w3.org/2000/svg" xmlns:xlink="http://www.w3.org/1999/xlink" width="500" zoomAndPan="magnify" viewBox="0 0 375 374.999991" height="500" preserveAspectRatio="xMidYMid meet" version="1.0"><defs><clipPath id="ab0656154b"><path d="M 66.035156 55.292969 L 309 55.292969 L 309 320 L 66.035156 320 Z M 66.035156 55.292969 " clip-rule="nonzero"/></clipPath></defs><rect x="-37.5" width="450" fill="#ffffff" y="-37.499999" height="449.999989" fill-opacity="1"/><rect x="-37.5" width="450" fill="#ffffff" y="-37.499999" height="449.999989" fill-opacity="1"/><g clip-path="url(#ab0656154b)"><path fill="#004aad" d="M 125.9375 187.496094 C 125.9375 138.898438 159.898438 105.710938 209.597656 105.710938 C 228.367188 105.710938 244.878906 110.496094 259.628906 120.625 L 308.945312 94.316406 C 284.175781 68.777344 248.785156 55.292969 206.679688 55.292969 C 125.222656 55.292969 66.054688 110.441406 66.054688 187.496094 C 66.054688 264.554688 125.222656 319.703125 206.679688 319.703125 C 237.558594 319.703125 264.800781 312.4375 286.875 298.566406 L 259.574219 254.371094 C 244.824219 264.5 228.367188 269.285156 209.542969 269.285156 C 159.898438 269.285156 125.9375 236.097656 125.9375 187.496094 Z M 125.9375 187.496094 " fill-opacity="1" fill-rule="evenodd"/></g><path fill="#aaccff" d="M 267.773438 220.578125 L 308.945312 154.640625 L 184.773438 220.90625 L 254.894531 220.632812 Z M 267.773438 220.578125 " fill-opacity="1" fill-rule="evenodd"/><path fill="#004aad" d="M 308.945312 154.640625 L 267.773438 220.578125 L 308.945312 287.230469 Z M 308.945312 154.640625 " fill-opacity="1" fill-rule="evenodd"/></svg>