<svg xmlns="http://www.w3.org/2000/svg" xmlns:xlink="http://www.w3.org/1999/xlink" width="500" zoomAndPan="magnify" viewBox="0 0 375 374.999991" height="500" preserveAspectRatio="xMidYMid meet" version="1.0"><defs><g/><clipPath id="795c17c6fe"><path d="M 37.5 144.117188 L 114 144.117188 L 114 227 L 37.5 227 Z M 37.5 144.117188 " clip-rule="nonzero"/></clipPath></defs><rect x="-37.5" width="450" fill="#ffffff" y="-37.499999" height="449.999989" fill-opacity="1"/><rect x="-37.5" width="450" fill="#ffffff" y="-37.499999" height="449.999989" fill-opacity="1"/><g clip-path="url(#795c17c6fe)"><path fill="#004aad" d="M 56.273438 185.554688 C 56.273438 170.324219 66.917969 159.921875 82.496094 159.921875 C 88.378906 159.921875 93.554688 161.421875 98.175781 164.597656 L 113.632812 156.351562 C 105.871094 148.34375 94.777344 144.117188 81.582031 144.117188 C 56.046875 144.117188 37.503906 161.40625 37.503906 185.554688 C 37.503906 209.707031 56.046875 226.992188 81.582031 226.992188 C 91.257812 226.992188 99.796875 224.71875 106.714844 220.371094 L 98.160156 206.515625 C 93.535156 209.691406 88.378906 211.191406 82.476562 211.191406 C 66.917969 211.191406 56.273438 200.789062 56.273438 185.554688 Z M 56.273438 185.554688 " fill-opacity="1" fill-rule="evenodd"/></g><path fill="#aaccff" d="M 100.730469 195.925781 L 113.632812 175.257812 L 74.714844 196.027344 L 96.691406 195.941406 Z M 100.730469 195.925781 " fill-opacity="1" fill-rule="evenodd"/><path fill="#004aad" d="M 113.632812 175.257812 L 100.730469 195.925781 L 113.632812 216.816406 Z M 113.632812 175.257812 " fill-opacity="1" fill-rule="evenodd"/><g fill="#004aad" fill-opacity="1"><g transform="translate(124.456188, 197.818157)"><g><path d="M 12.84375 0.34375 C 10.675781 0.34375 8.765625 -0.101562 7.109375 -1 C 5.460938 -1.90625 4.171875 -3.257812 3.234375 -5.0625 C 2.304688 -6.875 1.84375 -9.101562 1.84375 -11.75 C 1.84375 -14.394531 2.304688 -16.617188 3.234375 -18.421875 C 4.171875 -20.222656 5.460938 -21.570312 7.109375 -22.46875 C 8.765625 -23.375 10.675781 -23.828125 12.84375 -23.828125 C 15.101562 -23.828125 17.019531 -23.382812 18.59375 -22.5 C 20.175781 -21.613281 21.304688 -20.269531 21.984375 -18.46875 L 18.59375 -16.390625 L 18.1875 -16.40625 C 17.6875 -17.625 17.003906 -18.5 16.140625 -19.03125 C 15.273438 -19.5625 14.175781 -19.828125 12.84375 -19.828125 C 10.882812 -19.828125 9.359375 -19.179688 8.265625 -17.890625 C 7.179688 -16.597656 6.640625 -14.550781 6.640625 -11.75 C 6.640625 -8.945312 7.179688 -6.898438 8.265625 -5.609375 C 9.359375 -4.316406 10.882812 -3.671875 12.84375 -3.671875 C 15.894531 -3.671875 17.765625 -5.15625 18.453125 -8.125 L 18.84375 -8.125 L 22.265625 -6.34375 C 21.628906 -4.113281 20.53125 -2.441406 18.96875 -1.328125 C 17.414062 -0.210938 15.375 0.34375 12.84375 0.34375 Z M 12.84375 0.34375 "/></g></g></g><g fill="#004aad" fill-opacity="1"><g transform="translate(147.493668, 197.818157)"><g><path d="M 6.90625 0.34375 C 5.769531 0.34375 4.785156 0.132812 3.953125 -0.28125 C 3.117188 -0.707031 2.472656 -1.320312 2.015625 -2.125 C 1.566406 -2.9375 1.34375 -3.910156 1.34375 -5.046875 C 1.34375 -6.097656 1.566406 -6.976562 2.015625 -7.6875 C 2.472656 -8.394531 3.171875 -8.976562 4.109375 -9.4375 C 5.054688 -9.894531 6.289062 -10.242188 7.8125 -10.484375 C 8.875 -10.660156 9.675781 -10.847656 10.21875 -11.046875 C 10.769531 -11.253906 11.144531 -11.484375 11.34375 -11.734375 C 11.539062 -11.992188 11.640625 -12.320312 11.640625 -12.71875 C 11.640625 -13.289062 11.4375 -13.726562 11.03125 -14.03125 C 10.632812 -14.332031 9.976562 -14.484375 9.0625 -14.484375 C 8.070312 -14.484375 7.132812 -14.257812 6.25 -13.8125 C 5.363281 -13.375 4.59375 -12.796875 3.9375 -12.078125 L 3.609375 -12.078125 L 1.75 -14.890625 C 2.644531 -15.890625 3.738281 -16.664062 5.03125 -17.21875 C 6.332031 -17.78125 7.75 -18.0625 9.28125 -18.0625 C 11.632812 -18.0625 13.332031 -17.5625 14.375 -16.5625 C 15.425781 -15.570312 15.953125 -14.160156 15.953125 -12.328125 L 15.953125 -4.625 C 15.953125 -3.832031 16.300781 -3.4375 17 -3.4375 C 17.269531 -3.4375 17.53125 -3.484375 17.78125 -3.578125 L 18.015625 -3.515625 L 18.328125 -0.421875 C 18.085938 -0.253906 17.742188 -0.117188 17.296875 -0.015625 C 16.859375 0.078125 16.378906 0.125 15.859375 0.125 C 14.796875 0.125 13.96875 -0.078125 13.375 -0.484375 C 12.78125 -0.890625 12.351562 -1.523438 12.09375 -2.390625 L 11.765625 -2.421875 C 10.890625 -0.578125 9.269531 0.34375 6.90625 0.34375 Z M 8.328125 -2.984375 C 9.347656 -2.984375 10.164062 -3.328125 10.78125 -4.015625 C 11.40625 -4.710938 11.71875 -5.675781 11.71875 -6.90625 L 11.71875 -8.703125 L 11.40625 -8.765625 C 11.132812 -8.554688 10.78125 -8.378906 10.34375 -8.234375 C 9.914062 -8.085938 9.296875 -7.945312 8.484375 -7.8125 C 7.515625 -7.644531 6.816406 -7.363281 6.390625 -6.96875 C 5.972656 -6.582031 5.765625 -6.03125 5.765625 -5.3125 C 5.765625 -4.550781 5.988281 -3.972656 6.4375 -3.578125 C 6.894531 -3.179688 7.523438 -2.984375 8.328125 -2.984375 Z M 8.328125 -2.984375 "/></g></g></g><g fill="#004aad" fill-opacity="1"><g transform="translate(166.177487, 197.818157)"><g><path d="M 2.5625 0 L 2.5625 -17.71875 L 6.875 -17.71875 L 6.875 -15.09375 L 7.21875 -15.015625 C 7.644531 -16.003906 8.207031 -16.726562 8.90625 -17.1875 C 9.601562 -17.65625 10.445312 -17.890625 11.4375 -17.890625 C 12.445312 -17.890625 13.210938 -17.71875 13.734375 -17.375 L 12.984375 -13.53125 L 12.640625 -13.46875 C 12.359375 -13.582031 12.082031 -13.664062 11.8125 -13.71875 C 11.539062 -13.769531 11.210938 -13.796875 10.828125 -13.796875 C 9.585938 -13.796875 8.640625 -13.359375 7.984375 -12.484375 C 7.328125 -11.617188 7 -10.222656 7 -8.296875 L 7 0 Z M 2.5625 0 "/></g></g></g><g fill="#004aad" fill-opacity="1"><g transform="translate(180.07388, 197.818157)"><g><path d="M 17.515625 -7.859375 L 6.125 -7.859375 C 6.25 -6.316406 6.6875 -5.191406 7.4375 -4.484375 C 8.1875 -3.785156 9.210938 -3.4375 10.515625 -3.4375 C 11.523438 -3.4375 12.347656 -3.625 12.984375 -4 C 13.617188 -4.382812 14.128906 -4.960938 14.515625 -5.734375 L 14.84375 -5.734375 L 17.796875 -3.84375 C 17.222656 -2.59375 16.351562 -1.582031 15.1875 -0.8125 C 14.019531 -0.0390625 12.460938 0.34375 10.515625 0.34375 C 8.679688 0.34375 7.097656 -0.00390625 5.765625 -0.703125 C 4.429688 -1.398438 3.398438 -2.4375 2.671875 -3.8125 C 1.953125 -5.1875 1.59375 -6.867188 1.59375 -8.859375 C 1.59375 -10.867188 1.972656 -12.5625 2.734375 -13.9375 C 3.492188 -15.320312 4.519531 -16.351562 5.8125 -17.03125 C 7.113281 -17.71875 8.570312 -18.0625 10.1875 -18.0625 C 12.695312 -18.0625 14.617188 -17.394531 15.953125 -16.0625 C 17.285156 -14.738281 17.953125 -12.789062 17.953125 -10.21875 C 17.953125 -9.289062 17.914062 -8.566406 17.84375 -8.046875 Z M 13.6875 -10.734375 C 13.644531 -12.078125 13.332031 -13.054688 12.75 -13.671875 C 12.164062 -14.296875 11.3125 -14.609375 10.1875 -14.609375 C 7.9375 -14.609375 6.613281 -13.316406 6.21875 -10.734375 Z M 13.6875 -10.734375 "/></g></g></g><g fill="#004aad" fill-opacity="1"><g transform="translate(199.336046, 197.818157)"><g><path d="M 17.515625 -7.859375 L 6.125 -7.859375 C 6.25 -6.316406 6.6875 -5.191406 7.4375 -4.484375 C 8.1875 -3.785156 9.210938 -3.4375 10.515625 -3.4375 C 11.523438 -3.4375 12.347656 -3.625 12.984375 -4 C 13.617188 -4.382812 14.128906 -4.960938 14.515625 -5.734375 L 14.84375 -5.734375 L 17.796875 -3.84375 C 17.222656 -2.59375 16.351562 -1.582031 15.1875 -0.8125 C 14.019531 -0.0390625 12.460938 0.34375 10.515625 0.34375 C 8.679688 0.34375 7.097656 -0.00390625 5.765625 -0.703125 C 4.429688 -1.398438 3.398438 -2.4375 2.671875 -3.8125 C 1.953125 -5.1875 1.59375 -6.867188 1.59375 -8.859375 C 1.59375 -10.867188 1.972656 -12.5625 2.734375 -13.9375 C 3.492188 -15.320312 4.519531 -16.351562 5.8125 -17.03125 C 7.113281 -17.71875 8.570312 -18.0625 10.1875 -18.0625 C 12.695312 -18.0625 14.617188 -17.394531 15.953125 -16.0625 C 17.285156 -14.738281 17.953125 -12.789062 17.953125 -10.21875 C 17.953125 -9.289062 17.914062 -8.566406 17.84375 -8.046875 Z M 13.6875 -10.734375 C 13.644531 -12.078125 13.332031 -13.054688 12.75 -13.671875 C 12.164062 -14.296875 11.3125 -14.609375 10.1875 -14.609375 C 7.9375 -14.609375 6.613281 -13.316406 6.21875 -10.734375 Z M 13.6875 -10.734375 "/></g></g></g><g fill="#004aad" fill-opacity="1"><g transform="translate(218.598211, 197.818157)"><g><path d="M 2.5625 0 L 2.5625 -17.71875 L 6.875 -17.71875 L 6.875 -15.09375 L 7.21875 -15.015625 C 7.644531 -16.003906 8.207031 -16.726562 8.90625 -17.1875 C 9.601562 -17.65625 10.445312 -17.890625 11.4375 -17.890625 C 12.445312 -17.890625 13.210938 -17.71875 13.734375 -17.375 L 12.984375 -13.53125 L 12.640625 -13.46875 C 12.359375 -13.582031 12.082031 -13.664062 11.8125 -13.71875 C 11.539062 -13.769531 11.210938 -13.796875 10.828125 -13.796875 C 9.585938 -13.796875 8.640625 -13.359375 7.984375 -12.484375 C 7.328125 -11.617188 7 -10.222656 7 -8.296875 L 7 0 Z M 2.5625 0 "/></g></g></g><g fill="#004aad" fill-opacity="1"><g transform="translate(232.494604, 197.818157)"><g><path d="M 12.84375 0.34375 C 10.675781 0.34375 8.765625 -0.101562 7.109375 -1 C 5.460938 -1.90625 4.171875 -3.257812 3.234375 -5.0625 C 2.304688 -6.875 1.84375 -9.101562 1.84375 -11.75 C 1.84375 -14.394531 2.304688 -16.617188 3.234375 -18.421875 C 4.171875 -20.222656 5.460938 -21.570312 7.109375 -22.46875 C 8.765625 -23.375 10.675781 -23.828125 12.84375 -23.828125 C 15.101562 -23.828125 17.019531 -23.382812 18.59375 -22.5 C 20.175781 -21.613281 21.304688 -20.269531 21.984375 -18.46875 L 18.59375 -16.390625 L 18.1875 -16.40625 C 17.6875 -17.625 17.003906 -18.5 16.140625 -19.03125 C 15.273438 -19.5625 14.175781 -19.828125 12.84375 -19.828125 C 10.882812 -19.828125 9.359375 -19.179688 8.265625 -17.890625 C 7.179688 -16.597656 6.640625 -14.550781 6.640625 -11.75 C 6.640625 -8.945312 7.179688 -6.898438 8.265625 -5.609375 C 9.359375 -4.316406 10.882812 -3.671875 12.84375 -3.671875 C 15.894531 -3.671875 17.765625 -5.15625 18.453125 -8.125 L 18.84375 -8.125 L 22.265625 -6.34375 C 21.628906 -4.113281 20.53125 -2.441406 18.96875 -1.328125 C 17.414062 -0.210938 15.375 0.34375 12.84375 0.34375 Z M 12.84375 0.34375 "/></g></g></g><g fill="#004aad" fill-opacity="1"><g transform="translate(255.532085, 197.818157)"><g><path d="M 4.765625 -19.84375 C 3.960938 -19.84375 3.3125 -20.085938 2.8125 -20.578125 C 2.3125 -21.066406 2.0625 -21.695312 2.0625 -22.46875 C 2.0625 -23.226562 2.3125 -23.847656 2.8125 -24.328125 C 3.3125 -24.816406 3.960938 -25.0625 4.765625 -25.0625 C 5.304688 -25.0625 5.785156 -24.945312 6.203125 -24.71875 C 6.617188 -24.5 6.941406 -24.191406 7.171875 -23.796875 C 7.398438 -23.410156 7.515625 -22.96875 7.515625 -22.46875 C 7.515625 -21.957031 7.398438 -21.503906 7.171875 -21.109375 C 6.941406 -20.710938 6.617188 -20.398438 6.203125 -20.171875 C 5.785156 -19.953125 5.304688 -19.84375 4.765625 -19.84375 Z M 2.5625 0 L 2.5625 -17.71875 L 7 -17.71875 L 7 0 Z M 2.5625 0 "/></g></g></g><g fill="#004aad" fill-opacity="1"><g transform="translate(265.074807, 197.818157)"><g><path d="M 2.5625 0 L 2.5625 -17.71875 L 6.875 -17.71875 L 6.875 -15.09375 L 7.21875 -15.015625 C 7.644531 -16.003906 8.207031 -16.726562 8.90625 -17.1875 C 9.601562 -17.65625 10.445312 -17.890625 11.4375 -17.890625 C 12.445312 -17.890625 13.210938 -17.71875 13.734375 -17.375 L 12.984375 -13.53125 L 12.640625 -13.46875 C 12.359375 -13.582031 12.082031 -13.664062 11.8125 -13.71875 C 11.539062 -13.769531 11.210938 -13.796875 10.828125 -13.796875 C 9.585938 -13.796875 8.640625 -13.359375 7.984375 -12.484375 C 7.328125 -11.617188 7 -10.222656 7 -8.296875 L 7 0 Z M 2.5625 0 "/></g></g></g><g fill="#004aad" fill-opacity="1"><g transform="translate(278.9712, 197.818157)"><g><path d="M 10.328125 0.34375 C 8.617188 0.34375 7.101562 -0.0078125 5.78125 -0.71875 C 4.46875 -1.4375 3.441406 -2.484375 2.703125 -3.859375 C 1.960938 -5.242188 1.59375 -6.910156 1.59375 -8.859375 C 1.59375 -10.804688 1.960938 -12.46875 2.703125 -13.84375 C 3.441406 -15.226562 4.460938 -16.273438 5.765625 -16.984375 C 7.078125 -17.703125 8.570312 -18.0625 10.25 -18.0625 C 13.988281 -18.0625 16.382812 -16.707031 17.4375 -14 L 14.375 -11.8125 L 14.046875 -11.8125 C 13.679688 -12.644531 13.207031 -13.265625 12.625 -13.671875 C 12.039062 -14.078125 11.25 -14.28125 10.25 -14.28125 C 8.96875 -14.28125 7.96875 -13.832031 7.25 -12.9375 C 6.53125 -12.050781 6.171875 -10.691406 6.171875 -8.859375 C 6.171875 -7.035156 6.535156 -5.675781 7.265625 -4.78125 C 7.992188 -3.882812 9.015625 -3.4375 10.328125 -3.4375 C 11.296875 -3.4375 12.113281 -3.695312 12.78125 -4.21875 C 13.445312 -4.738281 13.925781 -5.484375 14.21875 -6.453125 L 14.5625 -6.484375 L 17.71875 -4.75 C 17.269531 -3.25 16.4375 -2.023438 15.21875 -1.078125 C 14.007812 -0.128906 12.378906 0.34375 10.328125 0.34375 Z M 10.328125 0.34375 "/></g></g></g><g fill="#004aad" fill-opacity="1"><g transform="translate(297.237314, 197.818157)"><g><path d="M 7.359375 0.34375 C 5.765625 0.34375 4.546875 -0.0859375 3.703125 -0.953125 C 2.859375 -1.816406 2.4375 -3.128906 2.4375 -4.890625 L 2.4375 -24.84375 L 6.890625 -24.84375 L 6.890625 -5.0625 C 6.890625 -3.976562 7.34375 -3.4375 8.25 -3.4375 C 8.5 -3.4375 8.769531 -3.476562 9.0625 -3.5625 L 9.28125 -3.5 L 9.6875 -0.078125 C 9.4375 0.046875 9.109375 0.144531 8.703125 0.21875 C 8.296875 0.300781 7.847656 0.34375 7.359375 0.34375 Z M 7.359375 0.34375 "/></g></g></g><g fill="#004aad" fill-opacity="1"><g transform="translate(307.422635, 197.818157)"><g><path d="M 17.515625 -7.859375 L 6.125 -7.859375 C 6.25 -6.316406 6.6875 -5.191406 7.4375 -4.484375 C 8.1875 -3.785156 9.210938 -3.4375 10.515625 -3.4375 C 11.523438 -3.4375 12.347656 -3.625 12.984375 -4 C 13.617188 -4.382812 14.128906 -4.960938 14.515625 -5.734375 L 14.84375 -5.734375 L 17.796875 -3.84375 C 17.222656 -2.59375 16.351562 -1.582031 15.1875 -0.8125 C 14.019531 -0.0390625 12.460938 0.34375 10.515625 0.34375 C 8.679688 0.34375 7.097656 -0.00390625 5.765625 -0.703125 C 4.429688 -1.398438 3.398438 -2.4375 2.671875 -3.8125 C 1.953125 -5.1875 1.59375 -6.867188 1.59375 -8.859375 C 1.59375 -10.867188 1.972656 -12.5625 2.734375 -13.9375 C 3.492188 -15.320312 4.519531 -16.351562 5.8125 -17.03125 C 7.113281 -17.71875 8.570312 -18.0625 10.1875 -18.0625 C 12.695312 -18.0625 14.617188 -17.394531 15.953125 -16.0625 C 17.285156 -14.738281 17.953125 -12.789062 17.953125 -10.21875 C 17.953125 -9.289062 17.914062 -8.566406 17.84375 -8.046875 Z M 13.6875 -10.734375 C 13.644531 -12.078125 13.332031 -13.054688 12.75 -13.671875 C 12.164062 -14.296875 11.3125 -14.609375 10.1875 -14.609375 C 7.9375 -14.609375 6.613281 -13.316406 6.21875 -10.734375 Z M 13.6875 -10.734375 "/></g></g></g></svg>