<?xml version="1.0" ?><!DOCTYPE svg  PUBLIC '-//W3C//DTD SVG 1.1//EN'  'http://www.w3.org/Graphics/SVG/1.1/DTD/svg11.dtd'><svg height="100%" style="fill-rule:evenodd;clip-rule:evenodd;stroke-linejoin:round;stroke-miterlimit:2;" version="1.1" viewBox="0 0 24 24" width="100%" xml:space="preserve" xmlns="http://www.w3.org/2000/svg" xmlns:serif="http://www.serif.com/" xmlns:xlink="http://www.w3.org/1999/xlink"><g id="Icon"><path d="M9.36,14.563l-5.39,-2.177c-1.085,-0.438 -1.773,-1.515 -1.717,-2.683c0.057,-1.168 0.846,-2.173 1.968,-2.504l14.809,-4.376c0.601,-0.177 1.251,-0.012 1.693,0.431c0.443,0.443 0.609,1.092 0.431,1.693c-0.925,3.132 -2.942,9.959 -4.382,14.832c-0.331,1.121 -1.334,1.91 -2.501,1.968c-1.167,0.058 -2.243,-0.628 -2.684,-1.71l-2.227,-5.474Zm1.473,-0.358l2.144,5.266c0.2,0.492 0.689,0.804 1.22,0.777c0.53,-0.026 0.986,-0.385 1.136,-0.894c1.44,-4.873 3.457,-11.7 4.383,-14.832c0.021,-0.074 0.001,-0.153 -0.053,-0.208c-0.054,-0.054 -0.134,-0.074 -0.208,-0.052l-14.809,4.375c-0.51,0.151 -0.869,0.608 -0.895,1.139c-0.025,0.531 0.288,1.02 0.781,1.219l5.263,2.126l3.609,-3.609c0.293,-0.292 0.768,-0.292 1.061,0c0.293,0.293 0.293,0.768 -0,1.061l-3.632,3.632Z"/></g></svg>