<svg height="200" viewBox="0 0 1024 1024" width="200" xmlns="http://www.w3.org/2000/svg"><path d="m368 724h-116v-116c0-4.4-3.6-8-8-8h-48c-4.4 0-8 3.6-8 8v116h-116c-4.4 0-8 3.6-8 8v48c0 4.4 3.6 8 8 8h116v116c0 4.4 3.6 8 8 8h48c4.4 0 8-3.6 8-8v-116h116c4.4 0 8-3.6 8-8v-48c0-4.4-3.6-8-8-8z"/><path d="m912 302.3-128 73.7v-152c0-35.3-28.7-64-64-64h-592c-35.3 0-64 28.7-64 64v352h72v-344h576v560h-264v72h272c35.3 0 64-28.7 64-64v-152l128 73.7c21.3 12.3 48-3.1 48-27.6v-364.1c0-24.6-26.7-40-48-27.7zm-24 322.7-104-59.8v-106.3l104-59.9z"/><path d="m320 360c4.4 0 8-3.6 8-8v-48c0-4.4-3.6-8-8-8h-112c-4.4 0-8 3.6-8 8v48c0 4.4 3.6 8 8 8z"/></svg>